<?xml version="1.0" standalone="no"?><!DOCTYPE svg PUBLIC "-//W3C//DTD SVG 1.1//EN" "http://www.w3.org/Graphics/SVG/1.1/DTD/svg11.dtd"><svg t="1629444689664" class="icon" viewBox="0 0 1024 1024" version="1.1" xmlns="http://www.w3.org/2000/svg" p-id="2950" xmlns:xlink="http://www.w3.org/1999/xlink" width="200" height="200"><defs><style type="text/css"></style></defs><path d="M978.67104 730.0352L207.06144 962.24c-26.8672 7.6416-54.6752-9.2288-55.36-33.5808L159.93184 583.424l823.1488-209.0752z" fill="#F6DF6B" p-id="2951"></path><path d="M193.74304 973.6768a55.6992 55.6992 0 0 1-32.9536-10.56 44.0768 44.0768 0 0 1-18.6816-34.1952l8.2304-345.728a9.6 9.6 0 0 1 7.232-9.0752l823.1424-209.0752a9.6 9.6 0 0 1 11.968 9.4272l-4.416 355.68a9.6 9.6 0 0 1-6.8288 9.0752L209.82624 971.4304a58.9056 58.9056 0 0 1-16.0832 2.24z m-24.384-382.7328l-8.0576 337.9392a24.608 24.608 0 0 0 10.848 18.752 37.4912 37.4912 0 0 0 32.288 5.376l764.7232-230.1376 4.16-336.1344z m809.312 139.0912z" p-id="2952"></path><path d="M393.14144 363.1232L157.90944 564.3712v36.928l830.7072-228.5184-11.0848-54.4448s-111.4048-125.2672-274.4448-140.1152l-90.5728-3.5904z" fill="#D03939" p-id="2953"></path><path d="M507.97664 469.3248a9.6 9.6 0 0 1-2.624-18.8288l377.3568-107.296a9.6 9.6 0 1 1 5.248 18.464L510.60704 468.9536a9.5744 9.5744 0 0 1-2.6368 0.3712z" fill="#FFFFFF" p-id="2954"></path><path d="M227.54784 505.1904a9.6 9.6 0 0 1-6.2656-16.8704l4.5184-3.8848L391.54144 342.464a9.6 9.6 0 0 1 12.4864 14.5856L233.80704 502.8672a9.5552 9.5552 0 0 1-6.2592 2.3232z" p-id="2955"></path><path d="M183.00384 971.8016a43.8656 43.8656 0 0 1-26.432-8.6912 35.0528 35.0528 0 0 1-14.464-27.9424V572.224a35.008 35.008 0 0 1 12.5632-26.4064l236.864-203.3408a9.6 9.6 0 1 1 12.4992 14.56L167.17664 560.384a15.68 15.68 0 0 0-5.8688 11.84v362.944a16.0704 16.0704 0 0 0 6.8352 12.6208 25.696 25.696 0 0 0 22.1568 3.7888l450.9376-128.2048 0.1152-0.0384c4.0512-1.1264 221.8432-63.0656 303.9808-86.4256l13.3952-3.808a18.1888 18.1888 0 0 0 14.5088-16.4032V328.1408c-74.656-90.176-199.6416-143.9104-335.1488-143.9104q-3.904 0-7.7952 0.0576a66.6496 66.6496 0 0 0-42.464 15.3216l-55.1168 47.232a9.6 9.6 0 1 1-12.4928-14.5728l55.1104-47.232a85.8496 85.8496 0 0 1 54.688-19.9488q4.032-0.0576 8.0704-0.0576c142.5408 0 274.2016 57.4336 352.2048 153.6384a9.5808 9.5808 0 0 1 2.144 6.0416v391.9872a37.0944 37.0944 0 0 1-28.4544 34.8672l-13.3952 3.808c-248.8768 70.784-294.8864 83.8656-304.1536 86.2848l0.0512 0.1792-450.9376 128.2112a45.8624 45.8624 0 0 1-12.544 1.7536z" p-id="2956"></path><path d="M382.24864 305.5872a92.512 79.6416 0 1 0 185.024 0 92.512 79.6416 0 1 0-185.024 0Z" fill="#E92F2F" p-id="2957"></path><path d="M474.76064 394.8288c-56.3008 0-102.112-40.032-102.112-89.2352s45.8112-89.248 102.112-89.248S576.87264 256.384 576.87264 305.6s-45.8112 89.2352-102.112 89.2352z m0-159.2768c-45.7152 0-82.912 31.4176-82.912 70.0416s37.1968 70.0352 82.912 70.0352 82.912-31.4176 82.912-70.0352-37.1968-70.048-82.912-70.048z" p-id="2958"></path><path d="M437.59584 285.1584a40.9856 40.9856 0 0 1-11.5968-1.0688 9.6 9.6 0 0 1 5.92-18.1824c7.6288 0.768 34.592-1.6 39.1488-5.952a9.3824 9.3824 0 0 1 13.1008-2.7904 9.7792 9.7792 0 0 1 2.8352 13.4336c-7.1488 11.2896-33.6 14.56-49.408 14.56z m-4.0192-18.7136h0.0128z m-0.0064 0z" p-id="2959"></path><path d="M456.50784 283.6032a9.408 9.408 0 0 1-2.368-0.3008 9.6 9.6 0 0 1-6.9376-11.6672c0.9216-3.5968 0.9152-12.1728-9.3888-29.1072-25.8304-42.4064-89.8048-94.2336-110.88-99.1168a9.6 9.6 0 1 1 4.3328-18.7008c27.8784 6.4512 95.0208 61.9904 122.944 107.84 10.6496 17.4912 14.5536 32.2304 11.6032 43.8272a9.6 9.6 0 0 1-9.2992 7.232zM342.53024 669.9648a9.6 9.6 0 0 1-2.624-18.8288l604.9472-172.576a9.6 9.6 0 0 1 5.2672 18.464l-604.9472 172.576a9.6576 9.6576 0 0 1-2.6432 0.3648zM212.13664 814.7008a9.6 9.6 0 0 1-2.496-18.8672l730.2144-196.992a9.6 9.6 0 1 1 4.9984 18.5408L214.63904 814.368a9.632 9.632 0 0 1-2.5024 0.3328zM151.69504 612.608a9.6 9.6 0 0 1-2.5408-18.8544l831.136-228.8064a9.6 9.6 0 1 1 5.0944 18.5088L154.24864 612.256a9.7088 9.7088 0 0 1-2.5536 0.352z" p-id="2960"></path></svg>