<?xml version="1.0" standalone="no"?><!DOCTYPE svg PUBLIC "-//W3C//DTD SVG 1.1//EN" "http://www.w3.org/Graphics/SVG/1.1/DTD/svg11.dtd"><svg t="1629444704150" class="icon" viewBox="0 0 1024 1024" version="1.1" xmlns="http://www.w3.org/2000/svg" p-id="3280" xmlns:xlink="http://www.w3.org/1999/xlink" width="200" height="200"><defs><style type="text/css"></style></defs><path d="M909.92864 741.024c-3.5648-106.1888 15.1808-314.4192-6.6368-290.9568-25.7088 27.648-32.9216 116.7552-32.9216 116.7552-22.4256-164.6464 35.4624-431.9424 13.984-416.576S744.93024 348.352 739.72064 503.552c-0.4672 14.0288-1.8816 55.5264-1.6192 69.2288-19.5264-4.7104-48.1856-81.088-183.328-148.192C444.92384 370.048 367.62464 358.3808 275.52864 350.5984c-51.808-4.3776-82.112-30.1184-131.296 96.7936-86.4448 223.0656 27.1936 274.1568 332.16 379.5584 189.0048 65.3312 259.8016 75.7248 367.4944 62.3168 48.4032-6.0288 69.0496-58.7904 66.048-148.2432z" fill="#F69859" p-id="3281"></path><path d="M769.43584 903.968c-77.9328 0-154.112-18.8416-296.1792-67.9424-192.7104-66.6048-312.8448-111.776-352.576-197.472-22.912-49.4208-18.4128-109.4528 14.5984-194.6304C178.33824 332.8128 209.52544 331.488 256.83424 338.56c6.2656 0.9344 12.736 1.9008 19.5072 2.4704 86.8544 7.3344 168.0768 18.048 282.7008 74.9568 95.3984 47.3664 139.3664 100.0256 162.9952 128.3136 2.1888 2.6176 4.4608 5.344 6.656 7.8912 0.3584-16.9024 1.056-37.7792 1.3952-47.7312l0.0384-1.2352c5.2352-155.9296 124.5632-343.552 148.64-360.7808a11.5392 11.5392 0 0 1 12.8256-0.896c10.08 5.9008 9.2736 20.2944-0.3456 107.3024-7.2768 65.8176-17.3312 156.8064-16.4672 238.5856a114.496 114.496 0 0 1 21.4848-43.904 12.8256 12.8256 0 0 1 14.624-4.0064c13.3504 5.4912 14.8288 28.064 10.592 161.0112-1.6 50.016-3.2448 101.728-1.952 140.16 3.3024 98.3424-21.7472 151.5328-74.4512 158.0992a606.176 606.176 0 0 1-75.6416 5.1712zM231.33664 355.2192c-26.0416 0-46.9376 15.0784-78.1568 95.6416-30.5536 78.8416-35.3408 135.9104-15.0784 179.616 35.7376 77.0752 152.832 122.2144 341.4272 187.4048 183.072 63.2704 254.3488 75.4176 363.1744 61.8624 41.152-5.1264 60.544-51.6928 57.632-138.4-1.312-39.0592 0.3456-91.0912 1.952-141.4144 1.5552-48.768 3.424-107.2448 0.9344-132.9088-14.4256 27.136-21.6 79.8848-23.2832 100.576a9.6 9.6 0 0 1-19.0784 0.5248c-13.3696-98.1504 1.472-232.4864 11.3024-321.376 3.2384-29.2992 6.5536-59.296 7.3536-76.992-33.9264 44.3392-125.696 200.0128-130.1952 334.1184l-0.0448 1.2352c-0.4992 14.88-1.8304 54.4128-1.5744 67.4816a9.6 9.6 0 0 1-11.8528 9.5168c-9.088-2.1888-16.4096-10.9632-28.544-25.4976-22.72-27.2064-65.024-77.8496-156.8-123.424-111.5968-55.4048-190.9184-65.856-275.776-73.024-7.3792-0.6208-14.1632-1.632-20.7296-2.6112a157.6576 157.6576 0 0 0-22.656-2.3296z" p-id="3282"></path><path d="M282.51744 489.6704S440.20704 573.856 473.90944 560.256" fill="#F19F40" p-id="3283"></path><path d="M465.19264 571.1104c-47.8656 0-162.688-59.8848-187.2-72.9728a9.6 9.6 0 1 1 9.0432-16.9344c63.84 34.08 162.912 78.4 183.2768 70.1504a9.6 9.6 0 1 1 7.1872 17.8112 33.3056 33.3056 0 0 1-12.3072 1.9456z" p-id="3284"></path><path d="M269.48064 580.608c14.6624 6.9952 156.9856 73.7664 186.3168 59.776" fill="#F19F40" p-id="3285"></path><path d="M445.29504 651.6288c-45.28 0-146.7712-46.5344-179.9488-62.3552a9.6 9.6 0 1 1 8.2624-17.3312c74.5792 35.5584 161.568 67.6416 178.0608 59.776a9.6 9.6 0 0 1 8.2624 17.3312 34.6432 34.6432 0 0 1-14.6368 2.5792z" p-id="3286"></path><path d="M349.32704 466.144c-0.5376 3.1744-37.4784 155.1616-33.1328 170.4256" fill="#F19F40" p-id="3287"></path><path d="M316.30944 646.3168a9.8176 9.8176 0 0 1-9.344-7.1232c-2.304-8.0704-0.1472-33.792 30.912-166.1376 1.1392-4.8704 1.8688-7.9744 2.0224-8.7104a9.6 9.6 0 0 1 18.8928 3.4048c-0.0768 0.4736-0.8832 3.968-2.2272 9.6896-30.1312 128.3904-31.7632 152.4352-31.0656 156.8192a9.4592 9.4592 0 0 1-6.6432 11.6992 9.2608 9.2608 0 0 1-2.5472 0.3584z" p-id="3288"></path><path d="M421.03264 495.392s-35.3088 151.9872-30.4192 166.6112" fill="#F19F40" p-id="3289"></path><path d="M390.79904 671.808a9.9136 9.9136 0 0 1-9.2864-6.7584c-5.0048-14.9632 16.7552-114.0736 30.1696-171.8272a9.6 9.6 0 0 1 18.7072 4.3456c-16.5184 71.0912-32.4608 151.0592-30.5472 161.8368a9.3952 9.3952 0 0 1-6.1248 11.9296 9.2352 9.2352 0 0 1-2.9184 0.4736z" p-id="3290"></path><path d="M833.44224 314.56s-52.5952 128.3584-47.2448 180.5376" fill="#F19F40" p-id="3291"></path><path d="M786.18464 504.6976a9.6 9.6 0 0 1-9.536-8.6208c-5.5296-53.952 45.728-179.8208 47.9104-185.152a9.6 9.6 0 1 1 17.7664 7.2768c-0.512 1.2608-51.616 126.7264-46.5792 175.9168a9.6 9.6 0 0 1-9.5552 10.5728z" fill="#FFFFFF" p-id="3292"></path><path d="M691.09984 523.4752s56.32 59.2768 63.4496 81.1968" fill="#F19F40" p-id="3293"></path><path d="M754.54944 614.272a9.6 9.6 0 0 1-9.1264-6.6304c-4.704-14.4512-40.0832-55.2384-61.28-77.5488a9.6 9.6 0 0 1 13.92-13.2288c5.9136 6.2272 58.0288 61.5296 65.6128 84.832a9.6128 9.6128 0 0 1-9.1264 12.576z" p-id="3294"></path></svg>